C:\GBW_MyPrograms\KinderuniversiteitApp\Resultaten\Ellis_v10102025\Olaf\Olaf_v1.mot
version=1
nRows=19
nColumns=29
inDegrees=yes
endheader
                time	         pelvis_tilt	           pelvis_tx	           pelvis_ty	       hip_flexion_l	       hip_flexion_r	        knee_angle_l	        knee_angle_r	       ankle_angle_l	       ankle_angle_r	    lumbar_extension	hamstrings_r/activation	bifemsh_r/activation	glut_max_r/activation	iliopsoas_r/activation	rect_fem_r/activation	  vasti_r/activation	gastroc_r/activation	 soleus_r/activation	tib_ant_r/activation	hamstrings_l/activation	bifemsh_l/activation	glut_max_l/activation	iliopsoas_l/activation	rect_fem_l/activation	  vasti_l/activation	gastroc_l/activation	 soleus_l/activation	tib_ant_l/activation	
          0.91733252	        -10.51404687	          1.20513761	          0.89703084	         -4.24481108	         27.41989371	        -14.68762680	         -0.53363183	          3.10080979	          7.50276828	          2.16319649	          0.48216608	          0.05000006	          0.12943319	          0.05000000	          0.06453437	          0.05000007	          0.05764443	          0.05764443	          0.41850343	          0.05125636	          0.42406313	          0.05000000	          0.99594570	          0.05000000	          0.05000000	          0.48549401	          0.84312635	          0.05000000	
          0.92650584	        -10.46634619	          1.22018518	          0.89572666	         -3.88700613	         26.49348423	        -17.11776992	          0.20544449	          2.26875023	          7.12136044	          2.47549454	          0.45452507	          0.05000004	          0.22127244	          0.05000000	          0.05597624	          0.06645762	          0.05000000	          0.05000000	          0.54606787	          0.08922267	          0.36782659	          0.05000000	          0.89403718	          0.05000000	          0.05000000	          0.42111089	          0.73131631	          0.05000000	
          0.93567917	        -10.42218041	          1.23522103	          0.89434213	         -3.29092033	         25.65648604	        -19.92806876	          0.08247874	          1.20512395	          6.50574395	          2.79381133	          0.41853713	          0.05000005	          0.32407479	          0.05000000	          0.05000000	          0.05764444	          0.06645759	          0.05764446	          0.52859339	          0.11740719	          0.31904778	          0.05000000	          0.77547568	          0.05000000	          0.05000000	          0.36526585	          0.63433381	          0.05000000	
          0.94485249	        -10.38834234	          1.25002194	          0.89314264	         -2.42675218	         24.84417986	        -23.07821278	         -0.22005012	         -0.29656529	          6.01123712	          3.09535826	          0.38690204	          0.06645763	          0.47078796	          0.05000000	          0.05000000	          0.05000000	          0.05764441	          0.05000002	          0.70748339	          0.10183740	          0.27673770	          0.05000000	          0.67263704	          0.05000000	          0.05000000	          0.31682662	          0.55021250	          0.05000000	
          0.95402582	        -10.37233981	          1.26432028	          0.89245118	         -1.28546545	         24.06516389	        -26.48345867	         -0.46117899	         -2.33891561	          5.32679911	          3.35243384	          0.37663921	          0.05764446	          0.57932126	          0.05000000	          0.05000000	          0.11446024	          0.05000000	          0.05000000	          0.78105932	          0.08833237	          0.24003851	          0.05000014	          0.58343620	          0.24607329	          0.05000000	          0.27481110	          0.47724683	          0.41050724	
          0.96319914	        -10.37560804	          1.27796258	          0.89236910	          0.05467110	         23.35202317	        -29.97455131	         -0.73271590	         -4.30528983	          4.85670117	          3.54629379	          0.35185033	          0.05000005	          0.59049336	          0.05000000	          0.05000000	          0.18316651	          0.05000000	          0.05000000	          0.81038802	          0.07661830	          0.20820614	          0.05000000	          0.50606462	          0.47659052	          0.05000000	          0.23836740	          0.41395740	          0.49965099	
          0.97237247	        -10.39629489	          1.29096034	          0.89291214	          1.49255740	         22.69397157	        -33.35032024	         -1.02519640	         -4.95993689	          4.64209942	          3.67627604	          0.33399766	          0.05000004	          0.55996172	          0.05000000	          0.05000000	          0.17912571	          0.05000000	          0.05000000	          0.76744847	          0.06645767	          0.18059518	          0.05000000	          0.43895356	          0.65241517	          0.05000000	          0.20675664	          0.35906101	          0.61359106	
          0.98154579	        -10.43063642	          1.30342711	          0.89404953	          2.97254113	         22.07488257	        -36.45043868	         -1.32366775	         -5.18645741	          4.63235680	          3.75292236	          0.31774392	          0.05000004	          0.52282158	          0.05000000	          0.05000000	          0.17222770	          0.05000000	          0.05000000	          0.70843390	          0.05764448	          0.21442698	          0.05000000	          0.38074236	          0.78431711	          0.05000000	          0.17933789	          0.31144463	          0.62739554	
          0.99071912	        -10.47510675	          1.31549095	          0.89563867	          4.45598246	         21.47810190	        -39.20351979	         -1.61058523	         -5.23059104	          4.75311473	          3.78923306	          0.30851090	          0.05000004	          0.49665744	          0.05000000	          0.05000000	          0.16385389	          0.05000000	          0.05000000	          0.64796601	          0.05000004	          0.25798702	          0.05000000	          0.36234879	          0.86616472	          0.05000000	          0.15555525	          0.27014283	          0.59245787	
          0.99989244	        -10.52695206	          1.32726244	          0.89751177	          5.92298182	         20.88588463	        -41.59748928	         -1.86395720	         -5.12716841	          4.93549004	          3.79684278	          0.30245285	          0.05000005	          0.47631352	          0.05000000	          0.05000000	          0.15505923	          0.05000000	          0.05000000	          0.59734847	          0.05000000	          0.30633113	          0.05000000	          0.35848274	          0.91394009	          0.05000000	          0.13492650	          0.23431821	          0.55203351	
          1.00906577	        -10.58351902	          1.33882379	          0.89952169	          7.36744791	         20.28343798	        -43.65049303	         -2.06688057	         -4.92662211	          5.13784713	          3.78366750	          0.29713055	          0.05000005	          0.45766833	          0.05000000	          0.05000000	          0.14838500	          0.05000000	          0.05000000	          0.55883889	          0.05000000	          0.35553130	          0.05000000	          0.36189358	          0.91727985	          0.05000000	          0.11703341	          0.20324442	          0.50626620	
          1.01823909	        -10.64169729	          1.35023120	          0.90155472	          8.78957020	         19.65996346	        -45.39549614	         -2.21026102	         -4.64746705	          5.34191198	          3.75353166	          0.29181962	          0.05000005	          0.43623626	          0.05000000	          0.05000000	          0.14317553	          0.05000000	          0.05000000	          0.53042553	          0.05000000	          0.40971469	          0.05000000	          0.36722193	          0.89295715	          0.05000000	          0.10151319	          0.17629144	          0.46528089	
          1.02741242	        -10.69891921	          1.36152110	          0.90352723	         10.19333156	         19.00994905	        -46.87076125	         -2.29290282	         -4.30401974	          5.54332223	          3.70823617	          0.28532008	          0.05000005	          0.41256924	          0.05000000	          0.05000000	          0.13851214	          0.05000000	          0.05000000	          0.50947246	          0.05000000	          0.46545440	          0.05000000	          0.37362326	          0.84815275	          0.05000000	          0.08805116	          0.15291280	          0.42845420	
          1.03658574	        -10.75321313	          1.37271688	          0.90537866	         11.58400656	         18.33221243	        -48.11502987	         -2.31945284	         -3.89828337	          5.74284340	          3.64853533	          0.27747168	          0.05000005	          0.38777864	          0.05000000	          0.05000000	          0.13248313	          0.05000000	          0.05000000	          0.49337881	          0.05000000	          0.52257380	          0.05000000	          0.38016024	          0.79144057	          0.05000000	          0.07637438	          0.13263448	          0.39707918	
          1.04575907	        -10.80309567	          1.38383384	          0.90706548	         12.96691177	         17.62886355	        -49.16468108	         -2.29891427	         -3.43104495	          5.94268463	          3.57468385	          0.26842429	          0.05000005	          0.36289178	          0.05000000	          0.05000000	          0.12406022	          0.05000000	          0.05000000	          0.47960193	          0.05000000	          0.57927232	          0.05000000	          0.38612737	          0.72895044	          0.05000000	          0.06624610	          0.11504534	          0.37042001	
          1.05493239	        -10.84748862	          1.39488248	          0.90855657	         14.34669268	         16.90472105	        -50.05238034	         -2.24390048	         -2.90220904	          6.14412749	          3.48676956	          0.25806387	          0.05000005	          0.34045933	          0.05000000	          0.05000000	          0.10760864	          0.05000000	          0.05000000	          0.46614239	          0.05000000	          0.63392614	          0.05000000	          0.39162561	          0.66591213	          0.05000000	          0.05746097	          0.09978876	          0.34709162	
          1.06410572	        -10.88567934	          1.40587003	          0.90983036	         15.72717700	         16.16744385	        -50.80636818	         -2.17115543	         -2.31618393	          6.34854352	          3.38487869	          0.24700867	          0.05000006	          0.31831479	          0.05000000	          0.05000000	          0.09333829	          0.05000000	          0.05000000	          0.45360990	          0.05000000	          0.68603542	          0.05000000	          0.39629678	          0.60546158	          0.05000000	          0.05000000	          0.08655541	          0.32797246	
          1.07327904	        -10.91724262	          1.41680357	          0.91087325	         17.11094834	         15.42427688	        -51.45015317	         -2.09557616	         -1.67965580	          6.55526848	          3.26940566	          0.23541580	          0.05000008	          0.29771237	          0.05000000	          0.05000000	          0.08096038	          0.05000000	          0.05000000	          0.44044857	          0.05000000	          0.73506492	          0.05000000	          0.40008264	          0.55005812	          0.05000000	          0.05000000	          0.07507699	          0.31775680	
          1.08245237	        -10.94201820	          1.42769100	          0.91167875	         18.49964480	         14.68125381	        -52.00321035	         -2.02959839	         -1.00557729	          6.76512449	          3.14114416	          0.22388891	          0.05000011	          0.27806517	          0.05000000	          0.05000000	          0.07022394	          0.05000000	          0.05000000	          0.42553146	          0.05000000	          0.77900091	          0.05000000	          0.40285040	          0.50093466	          0.05000000	          0.05000000	          0.06512075	          0.30840900	
